<svg width="50" height="50" viewBox="0 0 50 50" fill="currentColor" xmlns="http://www.w3.org/2000/svg">
<path d="M19.375 26.6664C18.5417 26.6664 17.5 26.2498 17.5 25.4164C17.5 24.5831 18.5417 24.7914 19.375 23.3331C19.375 23.3331 23.125 13.1248 15.625 13.1248C8.125 13.1248 11.875 23.3331 11.875 23.3331C12.7083 24.7914 13.75 24.5831 13.75 25.4164C13.75 26.2498 12.7083 26.6664 11.875 26.6664C10.625 26.8748 9.58334 26.6664 8.33334 27.9164V39.7914H18.75C19.1667 36.2498 20.2083 28.9581 21.0417 27.0831L21.25 26.8748C20.8333 26.6664 20.2083 26.6664 19.375 26.6664Z"   fill-opacity="0.6"/>
<path d="M41.6667 26.2499C40.2083 24.5833 38.9583 24.7916 37.5 24.5833C36.4583 24.3749 35.2083 24.1666 35.2083 23.1249C35.2083 22.0833 36.4583 22.4999 37.5 20.6249C37.5 20.6249 41.875 8.33325 32.9167 8.33325C23.75 8.54159 28.125 20.8333 28.125 20.8333C29.1667 22.4999 30.4167 22.2916 30.4167 23.1249C30.4167 24.1666 29.1667 24.3749 28.125 24.5833C26.25 24.7916 24.5833 24.5833 22.9167 27.7083C22.0833 29.5833 20.8333 39.7916 20.8333 39.7916H41.6667V26.2499Z"  />
</svg>
