<svg width="50" height="50" viewBox="0 0 50 50" fill="currentColor" xmlns="http://www.w3.org/2000/svg">
<path d="M39.3184 6.34766L37.8047 6.78711L25.793 10.2051L24.3281 10.6445L24.6211 11.7188L13.3418 8.44727L11.8281 8.00781L11.3887 9.52148L6.99414 24.4629C6.46313 26.3123 6.13965 28.5217 6.75 30.6641C7.24438 32.3975 8.4834 34.0637 10.4121 35.0586L8.99609 40.1855L4.50391 38.8672L3.625 41.8945L15.6367 45.3613L16.5156 42.334L12.0234 41.0156L13.4395 35.9375C15.6001 36.1145 17.5166 35.3333 18.8594 34.1309C20.5195 32.6416 21.4534 30.658 21.9844 28.8086L25.8418 15.918L29.0156 27.1973V27.2461C29.5466 29.0955 30.4805 31.0791 32.1406 32.5684C33.4956 33.783 35.3877 34.5154 37.5605 34.3262L38.9766 39.4531L34.4844 40.7715L35.3633 43.7988L47.375 40.332L46.4961 37.3047L42.0039 38.623L40.5391 33.4961C42.4678 32.5012 43.7068 30.835 44.2012 29.1016C44.8115 26.9592 44.5369 24.7498 44.0059 22.9004L39.7578 7.86133L39.3184 6.34766ZM37.2188 10.2051L39.1719 17.1875H29.4062L28.1855 12.793L37.2188 10.2051ZM13.9766 11.9141L22.9609 14.4531L21.6914 18.75H11.9258L13.9766 11.9141ZM30.2852 20.3125H40.0508L41.0273 23.7793C41.4485 25.2319 41.595 26.9592 41.2227 28.2715C40.8503 29.5837 40.1423 30.5054 38.2441 31.0547C36.3459 31.604 35.2534 31.1829 34.2402 30.2734C33.2271 29.364 32.4153 27.8198 31.9941 26.3672L30.2852 20.3125ZM10.998 21.875H20.7637L19.0059 27.9297H18.957C18.5359 29.3823 17.7729 30.9265 16.7598 31.8359C15.7466 32.7454 14.6541 33.1665 12.7559 32.6172C10.8577 32.0679 10.1497 31.1462 9.77734 29.834C9.40503 28.5217 9.55151 26.7944 9.97266 25.3418L10.998 21.875Z" />
</svg>
