<svg width="50" height="50" viewBox="0 0 50 50" fill="currentColor" xmlns="http://www.w3.org/2000/svg">
<path d="M17.1875 6.25V25.6836C17.0288 25.7263 16.8396 25.7874 16.6992 25.8301C15.9424 26.062 15.4175 26.3062 15.0391 26.5625C14.8499 26.6907 14.6729 26.825 14.5508 26.9531C14.4287 27.0813 14.2578 27.3438 14.2578 27.3438L14.0625 27.6855V31.25H15.625V43.75H18.75V31.25H31.25V43.75H34.375V31.25H35.9375V27.6855L35.7422 27.3438C35.7422 27.3438 35.5713 27.0813 35.4492 26.9531C35.3271 26.825 35.1501 26.6907 34.9609 26.5625C34.5825 26.3062 34.0576 26.062 33.3008 25.8301C33.1604 25.7874 32.9712 25.7263 32.8125 25.6836V6.25H29.6875V7.8125H20.3125V6.25H17.1875ZM20.3125 10.9375H23.4375V25.0488C22.2534 25.0793 21.1914 25.1099 20.3125 25.1953V10.9375ZM26.5625 10.9375H29.6875V25.1953C28.8086 25.1099 27.7466 25.0793 26.5625 25.0488V10.9375Z"/>
</svg>
