<svg width="50" height="50" viewBox="0 0 50 50" fill="currentColor" xmlns="http://www.w3.org/2000/svg">
<path d="M14.5833 8.33325H16.6667V14.5833H14.5833V8.33325Z"  fill-opacity="0.6"/>
<path d="M31.25 8.33325H33.3333V14.5833H31.25V8.33325Z"  fill-opacity="0.6"/>
<path d="M22.0833 37.5001H10.4167V20.8334H37.5V22.0834C38.3333 22.5001 38.9583 22.9167 39.5833 23.5417V10.4167H35.4167V16.6667H29.1667V10.4167H18.75V16.6667H12.5V10.4167H8.33334V39.5834H23.5417C22.9167 38.9584 22.5 38.3334 22.0833 37.5001Z"/>
<path d="M37.5 33.3333H31.25V27.0833H33.3333V31.2499H37.5V33.3333Z"  fill-opacity="0.6"/>
<path d="M32.2917 25.0001C36.25 25.0001 39.5833 28.3334 39.5833 32.2917C39.5833 36.2501 36.25 39.5834 32.2917 39.5834C28.3333 39.5834 25 36.2501 25 32.2917C25 28.3334 28.3333 25.0001 32.2917 25.0001ZM32.2917 22.9167C27.0833 22.9167 22.9167 27.0834 22.9167 32.2917C22.9167 37.5001 27.0833 41.6667 32.2917 41.6667C37.5 41.6667 41.6667 37.5001 41.6667 32.2917C41.6667 27.0834 37.5 22.9167 32.2917 22.9167Z"/>
</svg>
